<?xml version="1.0" standalone="no"?>
<!DOCTYPE svg PUBLIC "-//W3C//DTD SVG 20010904//EN"
 "http://www.w3.org/TR/2001/REC-SVG-20010904/DTD/svg10.dtd">
<svg version="1.0" xmlns="http://www.w3.org/2000/svg"
 width="200" height="70" viewBox="0 0 900.000000 225.000000"
 preserveAspectRatio="xMidYMid meet">
<metadata>
Created by potrace 1.10, written by Peter Selinger 2001-2011
</metadata>
<g transform="translate(0.000000,225.000000) scale(0.100000,-0.100000)"
fill="#FFFFFF" stroke="none">
<path d="M342 1907 c-9 -11 -12 -206 -10 -813 l3 -799 140 0 140 0 3 275 c2
204 5 276 15 282 18 11 325 10 347 -2 11 -6 56 -86 100 -178 45 -92 105 -214
133 -272 l52 -105 158 -3 c111 -2 157 1 157 9 0 6 -44 102 -99 212 -163 334
-181 372 -181 384 0 6 17 21 38 34 86 52 146 130 193 254 20 52 23 78 22 200
0 115 -4 151 -21 200 -44 129 -101 203 -202 263 -106 64 -116 65 -566 69 -348
4 -412 2 -422 -10z m773 -266 c61 -20 126 -93 148 -167 22 -76 21 -98 -2 -173
-24 -76 -60 -124 -114 -154 -40 -21 -53 -22 -282 -22 l-240 0 -3 255 c-1 140
0 261 3 268 7 18 430 12 490 -7z"/>
<path d="M2233 1912 c-11 -7 -20 -33 -83 -232 -18 -58 -45 -143 -60 -190 -15
-47 -42 -132 -60 -190 -18 -58 -46 -145 -62 -195 -15 -49 -36 -115 -44 -145
-9 -30 -22 -71 -29 -90 -7 -19 -20 -62 -30 -95 -9 -33 -23 -76 -30 -95 -7 -19
-20 -60 -29 -90 -9 -30 -32 -104 -51 -164 -20 -60 -33 -116 -31 -123 4 -10 38
-13 141 -13 l135 0 14 33 c15 36 73 218 82 259 13 59 13 59 340 56 l299 -3 22
-45 c11 -25 29 -72 39 -105 9 -33 27 -89 38 -125 l22 -65 142 -3 c137 -2 142
-2 142 18 0 18 -42 160 -75 250 -7 19 -20 60 -29 90 -27 91 -77 253 -91 290
-7 19 -20 60 -29 90 -8 30 -29 96 -44 145 -16 50 -44 137 -62 195 -18 58 -46
146 -62 195 -15 50 -36 115 -44 145 -9 30 -23 70 -30 88 -8 18 -14 39 -14 48
0 8 -7 28 -15 44 l-16 30 -192 0 c-105 0 -197 -4 -204 -8z m228 -377 c11 -33
26 -85 35 -115 9 -30 22 -71 29 -90 7 -19 28 -82 45 -140 18 -58 43 -137 56
-176 42 -124 58 -114 -191 -114 -246 0 -240 -3 -212 84 9 28 31 96 48 151 18
55 45 141 61 190 15 50 36 115 44 145 25 82 46 131 56 128 5 -2 18 -30 29 -63z"/>
<path d="M3351 1906 c-8 -10 -10 -230 -9 -812 l3 -799 130 0 130 0 5 474 c3
303 9 476 15 478 6 1 27 -34 49 -80 38 -80 71 -150 196 -412 57 -118 146 -307
188 -395 30 -63 40 -70 101 -70 65 0 47 -23 151 195 72 151 121 254 218 455
38 80 88 184 111 233 23 48 46 87 51 87 6 0 11 -189 12 -482 l3 -483 130 0
130 0 3 799 c1 582 -1 802 -9 812 -8 10 -41 14 -123 14 -61 0 -116 -4 -121 -8
-11 -7 -38 -61 -260 -517 -217 -447 -290 -589 -302 -593 -7 -2 -17 8 -23 22
-5 14 -55 119 -111 233 -226 463 -342 701 -372 763 -50 104 -44 100 -172 100
-83 0 -116 -4 -124 -14z"/>
<path d="M5146 1904 c-9 -23 -7 -217 2 -231 6 -9 73 -13 257 -15 l250 -3 5
-680 5 -680 140 0 140 0 3 669 c1 469 5 673 13 682 9 11 68 14 258 16 l246 3
0 125 0 125 -656 3 c-592 2 -657 1 -663 -14z"/>
<path d="M6675 1898 c-3 -13 -4 -378 -3 -813 l3 -790 138 -3 137 -3 -2 813 -3
813 -132 3 c-131 3 -133 2 -138 -20z"/>
<path d="M7285 1908 c-3 -7 -4 -373 -3 -813 l3 -800 140 0 140 0 5 539 c4 388
8 540 16 543 7 2 24 -18 40 -44 15 -26 51 -82 79 -123 28 -41 54 -80 56 -85 2
-6 76 -118 164 -250 88 -132 162 -244 165 -250 3 -5 54 -83 113 -173 l109
-163 141 3 142 3 0 810 0 810 -129 3 c-86 2 -133 -1 -142 -9 -12 -9 -14 -102
-14 -545 0 -473 -2 -534 -15 -534 -9 0 -19 8 -23 18 -6 16 -133 211 -253 390
-27 40 -49 75 -49 78 0 4 -13 23 -29 43 -15 20 -30 41 -32 46 -2 6 -79 124
-172 263 l-167 252 -140 0 c-103 0 -142 -3 -145 -12z"/>
</g>
</svg>
